<svg width="14" height="14" viewBox="0 0 14 14" fill="none" xmlns="http://www.w3.org/2000/svg">
<path d="M5.25002 1.16666C3.72169 1.16666 2.47919 2.40916 2.47919 3.9375C2.47919 5.43666 3.65169 6.65 5.18002 6.7025C5.22669 6.69666 5.27335 6.69666 5.30835 6.7025C5.32002 6.7025 5.32585 6.7025 5.33752 6.7025C5.34335 6.7025 5.34335 6.7025 5.34919 6.7025C6.84252 6.65 8.01502 5.43666 8.02085 3.9375C8.02085 2.40916 6.77835 1.16666 5.25002 1.16666Z" fill="white"/>
<path d="M8.21331 8.25416C6.58581 7.16916 3.93164 7.16916 2.29248 8.25416C1.55164 8.75 1.14331 9.42083 1.14331 10.1383C1.14331 10.8558 1.55164 11.5208 2.28664 12.0108C3.10331 12.5592 4.17664 12.8333 5.24998 12.8333C6.32331 12.8333 7.39664 12.5592 8.21331 12.0108C8.94831 11.515 9.35664 10.85 9.35664 10.1267C9.35081 9.40916 8.94831 8.74416 8.21331 8.25416Z" fill="white"/>
<path d="M11.6608 4.28167C11.7542 5.41334 10.9492 6.405 9.835 6.53917C9.82917 6.53917 9.82917 6.53917 9.82334 6.53917H9.80583C9.77083 6.53917 9.73583 6.53917 9.70667 6.55084C9.14083 6.58 8.62167 6.39917 8.23083 6.06667C8.83167 5.53 9.17584 4.725 9.10584 3.85C9.065 3.3775 8.90167 2.94584 8.65667 2.57834C8.87834 2.4675 9.135 2.3975 9.3975 2.37417C10.5408 2.275 11.5617 3.12667 11.6608 4.28167Z" fill="white"/>
<path d="M12.8275 9.6775C12.7808 10.2433 12.4192 10.7333 11.8125 11.0658C11.2292 11.3867 10.4942 11.5383 9.76499 11.5208C10.185 11.1417 10.43 10.6692 10.4767 10.1675C10.535 9.44417 10.1908 8.75 9.5025 8.19583C9.11166 7.88667 8.65666 7.64167 8.16083 7.46083C9.44999 7.0875 11.0717 7.33833 12.0692 8.14333C12.6058 8.575 12.88 9.1175 12.8275 9.6775Z" fill="white"/>
</svg>
