<svg width="18" height="18" viewBox="0 0 18 18" fill="none" xmlns="http://www.w3.org/2000/svg">
<path d="M12.72 4.6275C14.22 5.67 15.255 7.3275 15.465 9.24" stroke="#7C7C7C" stroke-linecap="round" stroke-linejoin="round"/>
<path d="M2.61749 9.27751C2.81249 7.37251 3.83249 5.71501 5.31749 4.66501" stroke="#7C7C7C" stroke-linecap="round" stroke-linejoin="round"/>
<path d="M6.14252 15.705C7.01252 16.1475 8.00252 16.395 9.04502 16.395C10.05 16.395 10.995 16.17 11.8425 15.7575" stroke="#7C7C7C" stroke-linecap="round" stroke-linejoin="round"/>
<path d="M9.04502 5.77501C10.1965 5.77501 11.13 4.84152 11.13 3.69001C11.13 2.5385 10.1965 1.60501 9.04502 1.60501C7.89351 1.60501 6.96002 2.5385 6.96002 3.69001C6.96002 4.84152 7.89351 5.77501 9.04502 5.77501Z" stroke="#7C7C7C" stroke-linecap="round" stroke-linejoin="round"/>
<path d="M3.62248 14.94C4.77399 14.94 5.70748 14.0065 5.70748 12.855C5.70748 11.7035 4.77399 10.77 3.62248 10.77C2.47096 10.77 1.53748 11.7035 1.53748 12.855C1.53748 14.0065 2.47096 14.94 3.62248 14.94Z" stroke="#7C7C7C" stroke-linecap="round" stroke-linejoin="round"/>
<path d="M14.3775 14.94C15.529 14.94 16.4625 14.0065 16.4625 12.855C16.4625 11.7035 15.529 10.77 14.3775 10.77C13.226 10.77 12.2925 11.7035 12.2925 12.855C12.2925 14.0065 13.226 14.94 14.3775 14.94Z" stroke="#7C7C7C" stroke-linecap="round" stroke-linejoin="round"/>
</svg>
